<?xml version="1.0" encoding="UTF-8"?>
<svg id="Layer_2" data-name="Layer 2" xmlns="http://www.w3.org/2000/svg" viewBox="0 0 353.75 185.69">
  <defs>
    <style>
      .cls-1 {
        fill: #fff;
      }

      .cls-2 {
        fill: #b9a87b;
      }
    </style>
  </defs>
  <g id="Layer_1-2" data-name="Layer 1">
    <g>
      <g>
        <path class="cls-1" d="M7.6,172.39c-2.55-1.78-4.24-2.95-4.24-5.35,0-1.84,1.35-3.07,3.37-3.07.98,0,2.72.23,4.27,2.7h.27v-3.25c-.31-.11-1.77-.69-4.34-.69-3.81,0-6.27,2.07-6.27,5.27,0,2.88,1.82,4.66,5.17,6.93,2.83,1.86,4.17,3.18,4.17,5.62,0,2.2-1.64,3.81-3.9,3.81-2.96,0-4.75-2.01-5.76-5.7h-.34v5.42c1.02.64,3.04,1.59,6.1,1.59,4.03,0,6.74-2.48,6.74-6.17,0-3.29-2.42-5.05-5.23-7.09Z"/>
        <polygon class="cls-1" points="325.98 163.4 327.43 165 327.43 183.43 325.98 185.03 325.98 185.32 331.97 185.32 331.97 185.03 330.52 183.43 330.52 165 331.97 163.4 331.97 163.11 325.98 163.11 325.98 163.4"/>
        <path class="cls-1" d="M353.49,180.75l-.02.02c-1.95,2.42-4.29,3.65-6.95,3.65-4.95,0-8.68-4.46-8.68-10.38,0-4.99,2.9-10.04,8.44-10.04,2.83,0,5.09,1.15,6.72,3.41l.02.03h.27v-3.72h-.05c-1.57-.46-4.03-.98-6.82-.98-3.54,0-6.59,1.23-8.82,3.55-2.06,2.14-3.19,5-3.19,8.06,0,6.57,5.05,11.34,12.01,11.34,4.19,0,7-1.38,7.3-1.54l.04-.02v-3.37h-.26Z"/>
        <path class="cls-1" d="M286.53,163.11h-4.39v.29l1.45,1.6v12.38c0,3.85-2.51,6.34-6.41,6.34-4.37,0-6.77-2.24-6.77-6.31v-12.42l1.45-1.6v-.29h-5.99v.29l1.45,1.6v12.45c0,5.24,3.4,8.24,9.34,8.24,4.97,0,8.44-3.39,8.44-8.24v-12.45l1.45-1.6v-.29Z"/>
        <polygon class="cls-1" points="89.79 165.9 89.79 183.43 88.34 185.03 88.34 185.32 92.73 185.32 92.73 185.03 91.29 183.43 91.29 167.58 107.04 185.32 108.2 185.32 108.2 165 109.64 163.4 109.64 163.11 105.26 163.11 105.26 163.4 106.7 165 106.7 180.51 91.45 163.11 87.22 163.11 87.22 163.4 89.79 165.9"/>
        <polygon class="cls-1" points="322.69 179.85 319.82 184.06 312.25 184.06 312.25 165 313.7 163.4 313.7 163.11 307.71 163.11 307.71 163.4 309.15 165 309.15 183.43 307.71 185.03 307.71 185.32 322.99 185.32 322.99 179.85 322.69 179.85"/>
        <polygon class="cls-1" points="57.88 183.43 56.43 185.03 56.43 185.32 62.42 185.32 62.42 185.03 60.97 183.43 60.97 165 62.42 163.4 62.42 163.11 56.43 163.11 56.43 163.4 57.88 165 57.88 183.43"/>
        <polygon class="cls-1" points="28.29 163.11 28.29 163.4 29.73 165 24.39 173.19 19.05 165 20.5 163.4 20.5 163.11 13.62 163.11 13.62 163.4 15.46 165.01 22.06 174.85 22.06 183.43 20.61 185.03 20.61 185.32 26.6 185.32 26.6 185.03 25.16 183.43 25.15 174.31 31.24 165.02 33.13 163.4 33.13 163.11 28.29 163.11"/>
        <path class="cls-1" d="M256.22,163.11h-7.25v.29l1.45,1.6v18.43l-1.45,1.6v.29h5.99v-.29l-1.44-1.6v-19.16s0,0,0,0h1.5c3.61,0,5.77,2.03,5.77,5.44,0,1.12-.25,4.92-5.87,5.75v.42c5.26.07,9.04-2.14,9.04-6.57,0-3.83-2.96-6.2-7.74-6.2Z"/>
        <polygon class="cls-1" points="245.3 180.59 242.97 184.06 235.39 184.06 235.39 174.11 242.23 174.11 243.98 175.69 244.27 175.69 244.27 171.3 243.98 171.3 242.23 172.88 235.39 172.88 235.39 164.34 242.3 164.34 244.5 167.14 244.8 167.14 244.8 163.11 230.85 163.11 230.85 163.4 232.29 165 232.29 183.43 230.85 185.03 230.85 185.32 245.6 185.32 245.6 180.59 245.3 180.59"/>
        <path class="cls-1" d="M155.89,180.15l-3.2-5.41c.68-.36,1.27-.83,1.75-1.38,1.64-1.89,2.06-4.52,1.07-6.71-1.03-2.25-3.3-3.55-6.24-3.55h-7.55v.29l1.45,1.6v18.43l-1.45,1.6v.29h5.99v-.29l-1.44-1.6v-7.87h3.14c.11,0,.2,0,.35-.02l3.57,6.14c2.43,4.29,4.94,4.06,7.16,3.62v-.3c-.83-.26-2.18-.81-4.58-4.86ZM149.23,174.43h-2.97v-10.16h2.07c3.39,0,4.71,2.7,4.71,5.11s-1.33,5.05-3.81,5.05Z"/>
        <polygon class="cls-1" points="83.89 183.44 76.75 163.11 73.25 163.11 66.69 183.45 65.26 185.03 65.26 185.32 69.58 185.32 69.58 185.03 68.13 183.43 74.17 164.58 77.75 174.78 70.84 174.78 71.11 176.01 78.18 176.01 80.79 183.43 79.34 185.03 79.34 185.32 85.33 185.32 85.33 185.03 83.89 183.44"/>
        <polygon class="cls-1" points="138.03 183.44 130.89 163.11 127.39 163.11 120.83 183.45 119.4 185.03 119.4 185.32 123.72 185.32 123.72 185.03 122.27 183.43 128.31 164.58 131.89 174.78 124.98 174.78 125.25 176.01 132.32 176.01 134.92 183.43 133.48 185.03 133.48 185.32 139.47 185.32 139.47 185.03 138.03 183.44"/>
        <polygon class="cls-1" points="180.12 183.44 172.97 163.11 169.48 163.11 162.91 183.45 161.49 185.03 161.49 185.32 165.8 185.32 165.8 185.03 164.36 183.43 170.4 164.58 173.98 174.78 167.07 174.78 167.34 176.01 174.41 176.01 177.01 183.43 175.57 185.03 175.57 185.32 181.56 185.32 181.56 185.03 180.12 183.44"/>
        <path class="cls-1" d="M49.76,180.15l-3.2-5.41c.68-.36,1.27-.83,1.75-1.38,1.64-1.89,2.06-4.52,1.07-6.71-1.03-2.25-3.3-3.55-6.24-3.55h-7.55v.29l1.45,1.6v18.43l-1.45,1.6v.29h5.99v-.29l-1.44-1.6v-19.16h2.07c3.39,0,4.71,2.7,4.71,5.11s-1.33,5.05-3.81,5.05h-3.03l.65,1.13h2.54c.11,0,.2,0,.35-.02l3.57,6.14c2.43,4.29,4.94,4.06,7.16,3.62v-.3c-.83-.26-2.18-.81-4.58-4.86Z"/>
        <path class="cls-1" d="M224.06,180.15l-3.2-5.41c.68-.36,1.27-.83,1.75-1.38,1.64-1.89,2.06-4.52,1.07-6.71-1.03-2.25-3.3-3.55-6.24-3.55h-7.55v.29l1.45,1.6v18.43l-1.45,1.6v.29h5.99v-.29l-1.44-1.6v-19.16h2.07c3.39,0,4.71,2.7,4.71,5.11s-1.33,5.05-3.81,5.05h-3.03l.65,1.13h2.54c.11,0,.2,0,.35-.02l3.57,6.14c2.43,4.29,4.94,4.06,7.16,3.62v-.3c-.83-.26-2.18-.81-4.58-4.86Z"/>
        <path class="cls-1" d="M193.69,173.29c2.45-.95,4.09-3.64,3.69-6.14-.19-1.22-1.22-4.05-6.59-4.05h-6.98v.29l1.45,1.6v18.43l-1.45,1.6v.29h7.61c5.1,0,7.9-3.14,8.04-6.23.11-2.56-1.63-5.31-5.78-5.79ZM190.22,164.27c1.45,0,2.56.42,3.31,1.25.8.9.97,2.03.97,2.83,0,2.29-1.42,4.84-3.31,4.84h-2.84v-8.93h1.87ZM191.53,184.19c-1.41,0-2.5-.33-3.17-.61v-10.27l.61,1.06h1.83c1.78,0,3.24.51,4.21,1.46.84.83,1.3,1.98,1.3,3.25,0,2.51-1.79,5.11-4.78,5.11Z"/>
        <path class="cls-1" d="M299.45,173.29c2.45-.95,4.09-3.64,3.69-6.14-.19-1.22-1.22-4.05-6.59-4.05h-6.98v.29l1.45,1.6v18.43l-1.45,1.6v.29h7.61c5.1,0,7.9-3.14,8.04-6.23.11-2.56-1.63-5.31-5.78-5.79ZM295.99,164.27c1.45,0,2.56.42,3.31,1.25.8.9.97,2.03.97,2.83,0,2.29-1.42,4.84-3.31,4.84h-2.84v-8.93h1.87ZM297.29,184.19c-1.41,0-2.5-.33-3.17-.61v-10.27l.61,1.06h1.83c1.78,0,3.24.51,4.21,1.46.84.83,1.3,1.98,1.3,3.25,0,2.51-1.79,5.11-4.78,5.11Z"/>
      </g>
      <g>
        <polygon class="cls-1" points="319.93 145.15 319.93 145.41 321.94 147.41 322.19 147.41 324.2 145.41 324.2 145.15 322.19 143.14 321.94 143.14 319.93 145.15"/>
        <g>
          <polygon class="cls-1" points="243.93 143.14 241.92 145.15 241.92 145.41 243.93 147.41 244.18 147.41 246.19 145.41 246.19 145.15 244.18 143.14 243.93 143.14"/>
          <polygon class="cls-1" points="241.23 145.41 241.23 145.15 239.23 143.14 238.97 143.14 236.96 145.15 236.96 145.41 238.97 147.41 239.23 147.41 241.23 145.41"/>
        </g>
        <g>
          <polygon class="cls-1" points="230.65 122.95 232.65 120.95 232.65 120.69 230.65 118.68 230.39 118.68 228.38 120.69 228.38 120.95 230.39 122.95 230.65 122.95"/>
          <polygon class="cls-1" points="225.69 122.95 227.7 120.95 227.7 120.69 225.69 118.68 225.43 118.68 223.43 120.69 223.43 120.95 225.43 122.95 225.69 122.95"/>
        </g>
        <polygon class="cls-1" points="349.21 138.29 347.77 139.89 347.77 140.18 353.75 140.18 353.75 139.89 352.31 138.29 352.31 119.87 353.75 118.27 353.75 117.98 347.77 117.98 347.77 118.27 349.21 119.87 349.21 138.29"/>
        <path class="cls-1" d="M252.53,125.29h4.54v.29l-1.44,1.6v13.13c0,5.64-3.58,7.72-7.77,6.93l-.14-1.14c2.99.55,4.82-1.68,4.82-5.52v-15.29Z"/>
        <polygon class="cls-1" points="105.21 138.29 103.77 139.89 103.77 140.18 109.75 140.18 109.75 139.89 108.31 138.29 108.31 119.87 109.75 118.27 109.75 117.98 103.77 117.98 103.77 118.27 105.21 119.87 105.21 138.29"/>
        <g>
          <polygon class="cls-1" points="25.92 143.14 23.91 145.15 23.91 145.41 25.92 147.41 26.17 147.41 28.18 145.41 28.18 145.15 26.17 143.14 25.92 143.14"/>
          <polygon class="cls-1" points="23.23 145.41 23.23 145.15 21.22 143.14 20.96 143.14 18.96 145.15 18.96 145.41 20.96 147.41 21.22 147.41 23.23 145.41"/>
        </g>
        <g>
          <polygon class="cls-1" points="12.64 122.95 14.65 120.95 14.65 120.69 12.64 118.68 12.38 118.68 10.38 120.69 10.38 120.95 12.38 122.95 12.64 122.95"/>
          <polygon class="cls-1" points="7.68 122.95 9.69 120.95 9.69 120.69 7.68 118.68 7.43 118.68 5.42 120.69 5.42 120.95 7.43 122.95 7.68 122.95"/>
        </g>
        <path class="cls-1" d="M34.5,125.29h4.54v.29l-1.44,1.6v13.13c0,5.64-3.58,7.72-7.77,6.93l-.14-1.14c2.99.55,4.82-1.68,4.82-5.52v-15.29Z"/>
        <path class="cls-1" d="M29.04,125.57v-.29h-4.54v13.63h-8.13c-1.28,0-2.31-1.04-2.31-2.31v-9.43l1.44-1.6v-.29h-7.07c-11.05,0-11.05,13.58.76,13.58v-.45c-8.42-1.07-6.99-12.02.8-12.02h.98v10.11c0,2.03,1.64,3.67,3.67,3.67h14.41s0-.29,0-.29l-1.44-1.6v-11.11l1.44-1.6Z"/>
        <g>
          <polygon class="cls-1" points="205.13 138.29 203.69 139.89 203.69 140.18 209.67 140.18 209.67 139.89 208.23 138.29 208.23 119.87 209.67 118.27 209.67 117.98 203.69 117.98 203.69 118.27 205.13 119.87 205.13 138.29"/>
          <polygon class="cls-1" points="155.6 143.14 153.6 145.15 153.6 145.41 155.6 147.41 155.86 147.41 157.87 145.41 157.87 145.15 155.86 143.14 155.6 143.14"/>
          <g>
            <polygon class="cls-1" points="146.35 147.41 148.36 145.41 148.36 145.15 146.35 143.14 146.09 143.14 144.09 145.15 144.09 145.41 146.09 147.41 146.35 147.41"/>
            <polygon class="cls-1" points="141.4 147.41 143.4 145.41 143.4 145.15 141.4 143.14 141.14 143.14 139.13 145.15 139.13 145.41 141.14 147.41 141.4 147.41"/>
          </g>
          <g>
            <polygon class="cls-1" points="130.73 122.95 132.73 120.95 132.73 120.69 130.73 118.68 130.47 118.68 128.46 120.69 128.46 120.95 130.47 122.95 130.73 122.95"/>
            <polygon class="cls-1" points="125.77 122.95 127.78 120.95 127.78 120.69 125.77 118.68 125.51 118.68 123.51 120.69 123.51 120.95 125.51 122.95 125.77 122.95"/>
          </g>
          <path class="cls-1" d="M200.98,118.27v-.29h-5.99v.29l1.44,1.6v19.05h-7.19c-1.52,0-2.87-.18-4.06-.54,4.57-2.65,6-7.28,6.37-10.12-2.17-1.09-5.17-1.76-8.49-1.76s-6.31.67-8.49,1.76c.36,2.84,1.8,7.48,6.37,10.12-1.21.37-2.59.54-4.14.54h-4.68c-2,0-3.86-1.25-4.82-3.1v-8.64l1.44-1.6v-.29h-4.54v15.29c0,3.84-1.83,6.07-4.82,5.52l.14,1.14c4.19.79,7.77-1.29,7.77-6.93v-1.5c1.17.87,2.38,1.38,4.37,1.38h6.65c1.77,0,3.35-.3,4.75-.82,1.4.51,2.98.82,4.75.82h13.16s0-.29,0-.29l-1.44-1.6v-18.42l1.44-1.6ZM178.15,128.93c3.38-1.34,6.47-1.34,9.85,0,0,3.27-1.57,6.66-4.92,8.54-3.35-1.88-4.92-5.27-4.92-8.54Z"/>
          <path class="cls-1" d="M158.73,125.57v-.29h-4.54v13.63h-4.07c-2,0-3.86-1.25-4.82-3.1v-8.64l1.44-1.6v-.29h-4.54v11.32c0,1.28-1.03,2.31-2.31,2.31h-5.43c-1.28,0-2.31-1.03-2.31-2.31v-9.43l1.44-1.6v-.29h-7.07c-11.05,0-11.05,13.58.76,13.58v-.45c-8.42-1.07-6.99-12.02.8-12.02h.98v10.11c0,2.03,1.64,3.67,3.67,3.67h8.9c1.34,0,2.51-.72,3.15-1.79,1.36,1.11,2.61,1.79,4.89,1.79h9.07s0-.29,0-.29l-1.44-1.6v-11.11l1.44-1.6Z"/>
        </g>
        <path class="cls-1" d="M247.05,125.57v-.29h-4.54v13.63h-8.13c-1.28,0-2.31-1.04-2.31-2.31v-9.43l1.44-1.6v-.29h-7.07c-11.05,0-11.05,13.58.76,13.58v-.45c-8.42-1.07-6.99-12.02.8-12.02h.98v10.11c0,2.03,1.64,3.67,3.67,3.67h14.41s0-.29,0-.29l-1.44-1.6v-11.11l1.44-1.6Z"/>
        <path class="cls-1" d="M344.88,118.27v-.29h-5.99v.29l1.44,1.6v19.05h-2.19c-12.24.19-8.81-20.15-23.97-12.42v1.11c10.04-3.64,9.04,7.46,16.44,11.31h-19.39c-.08-6.17-.76-12.42-6.77-12.42-6.31,0-6.76,8.87-6.76,9.2-.16,2.78-1.41,3.22-2.39,3.22h-7.84c2.06-1.27,3.29-3.2,4.2-5.3l-1.7-8.37-3.43-.64c-5.7,5.44-7.83,10.42-7.84,14.31h-5.7v-11.74l1.44-1.6v-.29h-5.76c-2.91,0-5.66,1.35-7.43,3.67-3.35,4.37-1.5,8.76-.59,11.23h8.57l.67-1.16v1.16c0,4.3-3.49,6.31-6.84,5.79l.16,1.2c1.29.13,4.57.93,7.41-1.62,1.52-1.37,2.38-3.32,2.37-5.37h5.77c.51,4.2,3.62,6.81,7.05,6.81h5.49l1.24-2c-.45-1.91-1.8-3.73-3.61-4.82h7.75c1.54,0,2.81-.66,3.53-1.9,1.41,1.18,2.67,1.9,5.02,1.9h2.02l.67-1.16v1.16h22.01s.72-1.24.72-1.24c1.49.77,3.33,1.24,5.66,1.24h8.56s0-.29,0-.29l-1.44-1.6v-18.42l1.44-1.6ZM269.9,138.92h-6.2c-.94-2.67-2.47-6.45.05-9.74,1.34-1.75,3.42-2.78,5.62-2.78h.53v12.52ZM287.22,125.72l1.45,8.49c-.15,1.58-1.28,3.53-3.28,4.71h-3.57c.17-4.67,3.37-10.68,5.4-13.2ZM289.14,145.79h-.97c-3.84,0-5.51-2.23-6.12-4.45-.1-.37-.16-.76-.2-1.16h1.91c4.11,0,5.12,2.33,5.38,5.62ZM307.94,138.92h-2.23c-1.98,0-3.83-1.23-4.8-3.05,0-.12,0-.24,0-.37,0-3.61.1-7.86,3.51-7.86s3.51,3.93,3.51,11.14v.14Z"/>
        <path class="cls-1" d="M101.06,118.27v-.29h-5.99v.29l1.44,1.6v19.05h-10.19c.58-.67.9-1.52.9-2.41v-9.33l1.44-1.6v-.29h-4.54v11.32c0,1.28-1.03,2.31-2.31,2.31h-4.05c.58-.67.9-1.52.9-2.41v-9.96h-3.1v10.06c0,1.28-1.03,2.31-2.31,2.31h-4.88c.58-.67.9-1.52.9-2.41v-8.7h-3.1v8.79c0,1.28-1.03,2.31-2.31,2.31h-8.92v-11.74l1.44-1.6v-.29h-5.76c-2.91,0-5.66,1.35-7.43,3.67-3.35,4.37-1.5,8.76-.59,11.23h8.57s.67-1.16.67-1.16v1.16c0,4.3-3.49,6.31-6.84,5.79l.16,1.2c1.29.13,4.57.93,7.41-1.62,1.52-1.37,2.38-3.32,2.37-5.37h10.66c.97,0,1.91-.39,2.6-1.07.05-.05.09-.1.14-.15l.71,1.23h5.95c.97,0,1.91-.39,2.6-1.07.05-.05.09-.1.14-.15l.71,1.23h5.11c.97,0,1.91-.39,2.6-1.07.05-.05.09-.1.14-.15l.71,1.22h14.05s0-.29,0-.29l-1.44-1.6v-18.42l1.44-1.6ZM51.87,138.92h-6.2c-.94-2.67-2.47-6.45.05-9.74,1.34-1.75,3.42-2.78,5.62-2.78h.53v12.52Z"/>
      </g>
    </g>
    <g>
      <path class="cls-2" d="M220.3,41.15c-.32.31-.65.62-.99.91l15.84,23.67-6.02-.8c-1.95-.26-3.67-1.42-4.64-3.12l-9.45-16.51c-.38.24-.75.48-1.14.7l15.16,27.6-6.03-1.22c-1.97-.4-3.64-1.71-4.49-3.54l-9.46-20.47c-.41.17-.83.33-1.26.48l9.91,22.46-4.6-.93c-2.17-.44-3.95-1.97-4.7-4.06l-5.78-16.05c-.44.09-.88.16-1.32.24l6.39,18.79-3.44-.69c-2.36-.48-4.24-2.25-4.86-4.58l-3.29-12.46h0c-.42.12-.84.24-1.26.38l3.81,15.53-2.46-.5c-2.56-.52-4.53-2.55-4.98-5.12l-1.36-7.9-2.35,5.47c-.26.61-.2,1.31.17,1.86l7.26,10.95c.1.15.16.32.17.51l.14,2.07,4.57,4.58h10.76v4.7l-2.29-2.3h-2.52l2.4,2.4-2.61,2.62v-2.62l-2.4-2.4h-2.31l-2.4,2.4v2.07l-2.79-2.8,2.43-2.37-4.27-4.28-1.54.17c-.24.03-.49-.03-.69-.17l-8.98-5.98,6.45,8.73,10.27,13.89h-4.33c-2.46,0-4.69-1.43-5.73-3.66l-3.77-8.11c-.36.16-.72.32-1.08.46l6.05,15.26h-2.09c-3.05,0-5.67-2.18-6.21-5.19l-1.63-8.96c-.36.06-.71.12-1.08.16l1.36,10.7c.26,2.06-.5,4.11-2.04,5.5l-1.93,1.74-1.93-1.74c-1.54-1.39-2.3-3.44-2.04-5.5l1.36-10.7c-.36-.04-.72-.1-1.08-.16l-1.63,8.96c-.55,3.01-3.16,5.19-6.21,5.19h-2.09l6.05-15.26c-.36-.14-.72-.3-1.08-.46l-3.77,8.11c-1.04,2.23-3.27,3.66-5.73,3.66h-4.33l10.27-13.89,6.45-8.72-8.98,5.97c-.2.14-.45.19-.69.17l-1.54-.17-4.27,4.28,2.43,2.37-2.79,2.8v-2.07l-2.4-2.4h-2.31l-2.4,2.4v2.62l-2.61-2.62,2.4-2.4h-2.52l-2.29,2.3v-4.7h10.76l4.57-4.58.15-2.07c.01-.18.07-.35.17-.5l7.26-10.95c.37-.55.43-1.25.17-1.86l-2.36-5.47h0l-1.36,7.9c-.44,2.57-2.42,4.61-4.98,5.12l-2.46.49,3.81-15.54c-.41-.14-.84-.26-1.26-.38l-3.29,12.46c-.62,2.33-2.5,4.11-4.86,4.58l-3.44.69,6.4-18.79c-.44-.07-.88-.14-1.32-.23l-5.78,16.06c-.75,2.08-2.53,3.62-4.7,4.06l-4.6.93,9.9-22.47c-.42-.15-.84-.31-1.25-.48l-9.46,20.47c-.85,1.83-2.51,3.15-4.49,3.54l-6.03,1.22,15.17-27.6c-.39-.22-.77-.46-1.14-.7l-9.46,16.52c-.98,1.71-2.69,2.86-4.64,3.12l-6.02.81,15.84-23.68c-.34-.29-.67-.6-.99-.91l-8.92,12.84c-1.1,1.58-2.85,2.57-4.77,2.7l-5.92.39,16-19.91c-.28-.35-.55-.71-.81-1.08l-8.88,10.66c-1.2,1.44-2.98,2.27-4.85,2.27h-5.89l28.36-29.6c1.53-1.59,3.64-2.5,5.85-2.5h6.33c1.69,0,3.06,1.37,3.06,3.07v3.58c0,2.88.96,5.54,2.58,7.67,2.31,3.05,5.97,5.02,10.09,5.02.92,0,1.81-.1,2.67-.28.69-.15,1.24-.66,1.43-1.33l2.25-8.14c.03-.14.04-.3.01-.45-.15-.99-1.49-1.6-2.98-1.37-1.2.18-2.13.85-2.38,1.61,0,0-.67-1.3-.68-2.26-.02-1.25.52-1.94,1.72-2.55l2.09-.98c1.32-1.21,3.47-2,5.9-2,3.74,0,6.83,1.86,7.22,4.27l.04.29,1.51,11.42c.11.82.74,1.47,1.55,1.6.66.11,1.35.17,2.04.17,4.12,0,7.78-1.97,10.09-5.02,1.62-2.13,2.58-4.79,2.58-7.67v-3.58c0-1.69,1.37-3.07,3.06-3.07h6.33c2.21,0,4.32.9,5.85,2.5l28.36,29.6h-5.89c-1.87,0-3.65-.83-4.85-2.27l-8.88-10.66c-.26.36-.53.72-.81,1.08l16,19.91-5.92-.39c-1.92-.13-3.67-1.12-4.77-2.7l-8.92-12.84Z"/>
      <polygon class="cls-2" points="173.13 11.57 176.88 8.83 180.63 11.57 179.19 7.15 182.94 4.42 178.31 4.42 176.88 0 175.44 4.42 170.81 4.42 174.56 7.15 173.13 11.57"/>
      <polygon class="cls-2" points="191.86 11.68 194.26 15.65 194.65 11.02 199.16 9.95 194.89 8.16 195.28 3.53 192.25 7.05 187.98 5.25 190.38 9.22 187.35 12.74 191.86 11.68"/>
      <polygon class="cls-2" points="159.11 11.03 159.45 15.66 161.89 11.71 166.39 12.82 163.39 9.27 165.83 5.32 161.54 7.08 158.55 3.53 158.89 8.16 154.6 9.92 159.11 11.03"/>
    </g>
  </g>
</svg>